<svg xmlns="http://www.w3.org/2000/svg" viewBox="0 0 512 512" role="img" aria-labelledby="title desc">
  <title id="title">Code CCTV logo</title>
  <desc id="desc">A polished security camera icon with a code symbol and recording light.</desc>
  <defs>
    <linearGradient id="bg" x1="70" y1="54" x2="442" y2="458" gradientUnits="userSpaceOnUse">
      <stop offset="0" stop-color="#0EA5E9"/>
      <stop offset="0.52" stop-color="#2563EB"/>
      <stop offset="1" stop-color="#14B8A6"/>
    </linearGradient>
    <linearGradient id="camera" x1="132" y1="162" x2="376" y2="330" gradientUnits="userSpaceOnUse">
      <stop offset="0" stop-color="#FFFFFF"/>
      <stop offset="1" stop-color="#DBEAFE"/>
    </linearGradient>
    <filter id="shadow" x="-20%" y="-20%" width="140%" height="140%">
      <feDropShadow dx="0" dy="18" stdDeviation="18" flood-color="#0F172A" flood-opacity="0.22"/>
    </filter>
  </defs>

  <rect width="512" height="512" rx="112" fill="#020617"/>
  <rect x="28" y="28" width="456" height="456" rx="94" fill="url(#bg)"/>
  <path d="M70 398C174 352 279 368 442 230V420C442 432 432 442 420 442H92C80 442 70 432 70 420V398Z" fill="#020617" opacity="0.12"/>

  <g filter="url(#shadow)">
    <path d="M122 184C122 162 140 144 162 144H332C354 144 372 162 372 184V270C372 292 354 310 332 310H162C140 310 122 292 122 270V184Z" fill="url(#camera)"/>
    <path d="M372 192L430 164C444 157 460 167 460 183V271C460 287 444 297 430 290L372 262V192Z" fill="#E0F2FE"/>
    <path d="M164 310H334L370 384H128L164 310Z" fill="#D8F3FF"/>
    <path d="M110 384H388C405 384 418 397 418 414V424H80V414C80 397 93 384 110 384Z" fill="#EFF6FF"/>
  </g>

  <circle cx="332" cy="224" r="42" fill="#0F172A"/>
  <circle cx="332" cy="224" r="27" fill="#1D4ED8"/>
  <circle cx="322" cy="214" r="9" fill="#93C5FD"/>
  <circle cx="394" cy="166" r="24" fill="#EF4444"/>
  <circle cx="394" cy="166" r="10" fill="#FEE2E2"/>

  <path d="M186 208L156 232L186 256" fill="none" stroke="#0F172A" stroke-width="18" stroke-linecap="round" stroke-linejoin="round"/>
  <path d="M236 200L220 264" fill="none" stroke="#0F172A" stroke-width="17" stroke-linecap="round"/>
  <path d="M252 208L282 232L252 256" fill="none" stroke="#0F172A" stroke-width="18" stroke-linecap="round" stroke-linejoin="round"/>
  <path d="M164 144H332C354 144 372 162 372 184V270C372 292 354 310 332 310H162C140 310 122 292 122 270V184C122 162 140 144 162 144Z" fill="none" stroke="#0F172A" stroke-width="16" opacity="0.14"/>
</svg>
